# AST/ASF file generated using VICON BodyLanguage
# -----------------------------------------------
:version 1.10
:name VICON
:units
  mass 1.0
  length 0.45
  angle deg
:documentation
   .ast/.asf automatically generated from VICON data using
   VICON BodyBuilder and BodyLanguage model FoxedUp or BRILLIANT.MOD
:root
   order TX TY TZ RX RY RZ
   axis XYZ
   position 0 0 0  
   orientation 0 0 0 
:bonedata
  begin
     id 1 
     name lhipjoint
     direction 0.714689 -0.624256 0.315473 
     length 2.45343 
     axis 0 0 0  XYZ
  end
  begin
     id 2 
     name lfemur
     direction 0.34202 -0.939693 0  
     length 6.59069  
     axis 0 0 20  XYZ
    dof rx ry rz
    limits (-160.0 20.0)
           (-70.0 70.0)
           (-60.0 70.0)
  end
  begin
     id 3 
     name ltibia
     direction 0.34202 -0.939693 0   
     length 6.73476   
     axis 0 0 20   XYZ
    dof rx
    limits (-10.0 170.0)
  end
  begin
     id 4 
     name lfoot
     direction 0.0718085 -0.197292 0.977711   
     length 1.52607   
     axis -90 7.62852e-016 20   XYZ
    dof rx rz
    limits (-45.0 90.0)
           (-70.0 20.0)
  end
  begin
     id 5 
     name ltoes
     direction 1.53553e-011 -4.22024e-011 1   
     length 0.777832   
     axis -90 7.62852e-016 20   XYZ
    dof rx
    limits (-90.0 20.0)
  end
  begin
     id 6 
     name rhipjoint
     direction -0.727419 -0.612432 0.309497   
     length 2.50079  
     axis 0 0 0  XYZ 
  end
  begin
     id 7 
     name rfemur
     direction -0.34202 -0.939693 0   
     length 6.51665   
     axis 0 0 -20   XYZ
    dof rx ry rz
    limits (-160.0 20.0)
           (-70.0 70.0)
           (-70.0 60.0)
  end
  begin
     id 8 
     name rtibia
     direction -0.34202 -0.939693 0   
     length 6.48919   
     axis 0 0 -20   XYZ
    dof rx
    limits (-10.0 170.0)
 end
 begin
     id 9 
     name rfoot
     direction -0.112205 -0.308282 0.944655   
     length 1.68717  
     axis -90 -7.62852e-016 -20   XYZ
    dof rx rz
    limits (-45.0 90.0)
           (-20.0 70.0)
  end
  begin
     id 10 
     name rtoes
     direction -1.53583e-011 -4.21993e-011 1   
     length 0.846859   
     axis -90 -7.62852e-016 -20   XYZ
    dof rx
    limits (-90.0 20.0)
  end
  begin
     id 11 
     name lowerback
     direction -0.00119603 0.996364 -0.0851956   
     length 1.67242   
     axis 0 0 0   XYZ
    dof rx ry rz
    limits (-20.0 45.0)
           (-30.0 30.0)
           (-30.0 30.0)
  end
  begin
     id 12 
     name upperback
     direction -0.00531001 0.998318 0.0577248   
     length 1.64819   
     axis 0 0 0   XYZ
    dof rx ry rz
    limits (-20.0 45.0)
           (-30.0 30.0)
           (-30.0 30.0)
  end
  begin
     id 13 
     name thorax
     direction -0.00653676 0.995132 0.0983291   
     length 1.67429   
     axis 0 0 0   XYZ
    dof rx ry rz
    limits (-20.0 45.0)
           (-30.0 30.0)
           (-30.0 30.0)
  end
  begin
     id 14 
     name lowerneck
     direction 0.0141424 0.999886 0.00525412   
     length 1.59623   
     axis 0 0 0   XYZ
    dof rx ry rz
    limits (-20.0 45.0)
           (-30.0 30.0)
           (-30.0 30.0)
  end
  begin
     id 15 
     name upperneck
     direction -0.0640064 0.987178 -0.146232   
     length 1.59576   
     axis 0 0 0   XYZ
    dof rx ry rz
    limits (-20.0 45.0)
           (-30.0 30.0)
           (-30.0 30.0)
  end
  begin
     id 16
     name head
     direction -0.0222942 0.998496 -0.0500859  
     length 1.60959  
     axis 0 0 0   XYZ
    dof rx ry rz
    limits (-20.0 45.0)
           (-30.0 30.0)
           (-30.0 30.0)
  end
  begin
     id 17 
     name lclavicle
     direction 0.908549 0.392612 0.142806  
     length 2.80649  
     axis 0 0 0   XYZ
    dof ry rz
    limits (-20.0 10.0)
           (0.0 20.0)
  end
  begin
     id 18 
     name lhumerus
     direction 1 -4.48968e-011 1.08832e-028   
     length 4.2884   
     axis -180 -30 -90   XYZ
    dof rx ry rz
    limits (-60.0 90.0)
           (-90.0 90.0)
           (-90.0 90.0)
  end
  begin
     id 19
     name lradius
     direction 1 -4.48952e-011 -3.02642e-028   
     length 3.06552   
     axis -180 -30 -90   XYZ
    dof rx
    limits (-10.0 170.0)
  end
  begin
     id 20
     name lwrist
     direction 1 -4.49014e-011 1.58672e-027   
     length 1.53276   
     axis -1.65735e-015 90 90   XYZ
    dof ry
    limits (-180.0 0.0)
 end
  begin
     id 21 
     name lhand
     direction 1 -4.48928e-011 3.17344e-027   
     length 0.753045   
     axis -2.02492e-015 90 90   XYZ
    dof rx rz
    limits (-90.0 90.0)
           (-45.0 45.0)
  end
  begin
     id 22 
     name lfingers
     direction 1 -4.48958e-011 6.34687e-027   
     length 0.607124   
     axis -4.04985e-015 90 90   XYZ
    dof rx
    limits (0.0 90.0)
  end
  begin
     id 23
     name lthumb
     direction 0.707107 -6.34905e-011 0.707107   
     length 0.871712   
     axis -90 45 2.85299e-015   XYZ
    dof rx rz
    limits (-45.0 45.0)
           (-45.0 45.0)
  end
  begin
     id 24 
     name rclavicle
     direction -0.885098 0.45949 0.0739604   
     length 2.9478  
     axis 0 0 0   XYZ 
    dof ry rz
    limits (-10.0 20.0)
           (-20.0 0.0)
  end
  begin
     id 25 
     name rhumerus
     direction -1 -4.4898e-011 -2.61739e-027  
     length 4.52172   
     axis -180 30 90   XYZ
    dof rx ry rz
    limits (-90.0 60.0)
           (-90.0 90.0)
           (-90.0 90.0)
  end
  begin
     id 26 
     name rradius
     direction -1 -4.48945e-011 9.02552e-028   
     length 2.8914   
     axis -180 30 90   XYZ
    dof rx
    limits (-10.0 170.0)
  end
  begin
     id 27 
     name rwrist
     direction -1 -4.49018e-011 1.58672e-027   
     length 1.4457   
     axis -1.65735e-015 -90 -90   XYZ
    dof ry
    limits (-180.0 0.0)
  end
  begin
     id 28
     name rhand
     direction -1 -4.48825e-011 3.17344e-027   
     length 0.680541   
     axis -2.02492e-015 -90 -90   XYZ
    dof rx rz
    limits (-90.0 90.0)
           (-45.0 45.0)
  end
  begin
     id 29
     name rfingers
     direction -1 -4.49067e-011 6.34687e-027   
     length 0.54867   
     axis -4.04985e-015 -90 -90   XYZ
    dof rx
    limits (0.0 90.0)
  end
  begin
     id 30
     name rthumb
     direction -0.707107 -6.34833e-011 0.707107   
     length 0.787783   
     axis -90 -45 -2.85299e-015   XYZ
    dof rx rz
    limits (-45.0 45.0)
           (-45.0 45.0)
  end
:hierarchy
  begin
    root lhipjoint rhipjoint lowerback
    lhipjoint lfemur
    lfemur ltibia
    ltibia lfoot
    lfoot ltoes
    rhipjoint rfemur
    rfemur rtibia
    rtibia rfoot
    rfoot rtoes
    lowerback upperback
    upperback thorax
    thorax lowerneck lclavicle rclavicle
    lowerneck upperneck
    upperneck head
    lclavicle lhumerus
    lhumerus lradius
    lradius lwrist
    lwrist lhand lthumb
    lhand lfingers
    rclavicle rhumerus
    rhumerus rradius
    rradius rwrist
    rwrist rhand rthumb
    rhand rfingers
  end

#!OML:ASF E:\emotionWalksFemale\Project 1\Capture day 1\Session 1\Female1.ASF
:FULLY-SPECIFIED
:DEGREES
65
root 8.81422 15.1214 22.6064 183.137 4.24409 -178.864
lowerback 12.7824 1.08733 1.73906
upperback -2.82388 1.76741 0.194218
thorax -10.203 0.74839 -1.15026
lowerneck -8.37732 -1.5339 -4.7032
upperneck 5.96784 -1.84736 4.51598
head 3.56054 -0.832413 2.24707
rclavicle -8.10979e-015 -2.5345e-015
rhumerus -41.0853 10.0516 -91.2551
rradius 36.9922
rwrist 26.3818
rhand -5.97367 -53.7484
rfingers 7.12502
rthumb 19.8577 -82.7539
lclavicle -8.10979e-015 -2.5345e-015
lhumerus -41.0195 -4.59559 88.5209
lradius 38.6719
lwrist -10.57
lhand -6.00983 -34.1305
lfingers 7.12502
lthumb 19.8229 -5.12138
rfemur -16.0289 6.64447 24.0274
rtibia 35.5087
rfoot -21.9292 -20.8675
rtoes -10.2672
lfemur -19.4212 -5.85685 -20.3635
ltibia 39.5185
lfoot -27.1392 7.30318
ltoes -31.9712
66
root 8.80935 15.1014 22.6105 183.315 4.22063 -178.874
lowerback 12.9192 1.05776 1.78362
upperback -2.82705 1.73744 0.185467
thorax -10.2863 0.729607 -1.18205
lowerneck -8.39152 -1.57835 -4.79651
upperneck 5.87585 -1.89862 4.57937
head 3.53724 -0.857396 2.2822
rclavicle 1.02219e-014 -7.95139e-016
rhumerus -40.9437 10.1651 -91.2007
rradius 36.987
rwrist 26.3259
rhand -6.11082 -53.6699
rfingers 7.12502
rthumb 19.7258 -82.6891
lclavicle 1.02219e-014 -7.95139e-016
lhumerus -40.9774 -4.58606 88.4659
lradius 38.7579
lwrist -10.5092
lhand -6.15926 -34.2504
lfingers 7.12502
lthumb 19.6793 -5.22653
rfemur -16.5944 6.35167 23.9822
rtibia 36.12
rfoot -22.1673 -20.8877
rtoes -10.9178
lfemur -19.9546 -5.71285 -20.3745
ltibia 40.1076
lfoot -27.3448 7.25341
ltoes -31.9415
67
root 8.8075 15.0823 22.6117 183.439 4.37886 -178.78
lowerback 13.1321 1.07591 1.81734
upperback -2.83648 1.77617 0.21903
thorax -10.4208 0.745206 -1.17888
lowerneck -8.34115 -1.58818 -4.83562
upperneck 5.75264 -1.91094 4.64098
head 3.48723 -0.862264 2.30831
rclavicle -1.85926e-014 -2.48481e-015
rhumerus -40.9957 10.1651 -91.1806
rradius 37.1139
rwrist 26.3819
rhand -6.39605 -53.5156
rfingers 7.12502
rthumb 19.4516 -82.5627
lclavicle -1.85926e-014 -2.48481e-015
lhumerus -40.9766 -4.42772 88.3445
lradius 38.7521
lwrist -10.635
lhand -6.37233 -34.4707
lfingers 7.12502
lthumb 19.4744 -5.42594
rfemur -17.0653 6.35182 24.0597
rtibia 36.7363
rfoot -22.3965 -20.9558
rtoes -11.3297
lfemur -20.3792 -5.46427 -20.2728
ltibia 40.7171
lfoot -27.6746 7.20906
ltoes -31.6922
68
root 8.80757 15.0626 22.6116 183.57 4.66711 -178.715
lowerback 13.2329 1.13821 1.74901
upperback -2.75111 1.85372 0.266737
thorax -10.3864 0.789232 -1.10703
lowerneck -8.38815 -1.57739 -4.7581
upperneck 5.50276 -1.89583 4.61925
head 3.40645 -0.853276 2.28457
rclavicle -1.95306e-014 -3.97569e-015
rhumerus -40.7963 10.0268 -91.0363
rradius 37.1974
rwrist 26.6486
rhand -7.91405 -53.1276
rfingers 7.12502
rthumb 17.9915 -82.3154
lclavicle -1.95306e-014 -3.97569e-015
lhumerus -40.7662 -4.14073 88.1822
lradius 38.6581
lwrist -10.8943
lhand -6.55172 -34.6271
lfingers 7.12502
lthumb 19.3019 -5.56501
rfemur -17.5472 6.40003 24.1125
rtibia 37.354
rfoot -22.5728 -20.901
rtoes -11.5919
lfemur -20.7962 -5.11103 -20.2051
ltibia 41.3371
lfoot -28.0149 7.19058
ltoes -31.3697
69
root 8.80628 15.0382 22.614 183.747 4.7923 -178.723
lowerback 13.2851 1.14932 1.68571
upperback -2.68215 1.8602 0.290037
thorax -10.343 0.798052 -1.04791
lowerneck -8.41534 -1.57656 -4.79732
upperneck 5.27595 -1.88671 4.66873
head 3.33436 -0.847109 2.30687
rclavicle 1.51201e-014 2.28602e-015
rhumerus -40.4095 9.89298 -90.7782
rradius 37.2142
rwrist 27.1013
rhand -8.52525 -53.0077
rfingers 7.12502
rthumb 17.4034 -82.2486
lclavicle 1.51201e-014 2.28602e-015
lhumerus -40.5493 -3.82875 88.0537
lradius 38.5715
lwrist -11.114
lhand -6.56142 -34.4473
lfingers 7.12502
lthumb 19.2926 -5.38432
rfemur -18.0929 6.29299 24.0814
rtibia 37.9749
rfoot -22.7724 -20.7397
rtoes -11.5735
lfemur -21.3083 -4.81886 -20.2119
ltibia 41.9392
lfoot -28.2969 7.20876
ltoes -31.5673
70
root 8.80415 15.0155 22.6171 183.943 4.80847 -178.702
lowerback 13.4529 1.13229 1.71106
upperback -2.70513 1.84855 0.312559
thorax -10.4673 0.789879 -1.04018
lowerneck -8.30086 -1.60058 -4.98482
upperneck 5.03205 -1.90297 4.76516
head 3.23469 -0.856568 2.3707
rclavicle -3.17434e-015 -7.65321e-015
rhumerus -40.2398 9.82069 -90.5806
rradius 37.2789
rwrist 27.3713
rhand -6.10951 -53.7742
rfingers 7.12502
rthumb 19.7271 -82.7932
lclavicle -3.17434e-015 -7.65321e-015
lhumerus -40.4349 -3.70753 88.0429
lradius 38.4875
lwrist -11.1759
lhand -6.6113 -33.9746
lfingers 7.12502
lthumb 19.2446 -4.90681
rfemur -18.6626 6.1569 24.0814
rtibia 38.6095
rfoot -23.048 -20.7331
rtoes -12.0405
lfemur -21.8465 -4.60097 -20.1823
ltibia 42.5224
lfoot -28.5834 7.08124
ltoes -31.929
